<?xml version="1.0" encoding="utf-8"?>
<svg version="1.1" id="Ebene_1" xmlns="http://www.w3.org/2000/svg" xmlns:xlink="http://www.w3.org/1999/xlink" x="0px" y="0px" style="enable-background:new 0 0 30 30;" xml:space="preserve">
	<symbol viewBox="0 0 30 30" id="no-budget">
		<rect x="14.2" y="-2.1" transform="matrix(0.7071 0.7071 -0.7071 0.7071 14.9692 -6.1127)" width="1.4" height="34.3"/>
		<path d="M22.3,10.5c0-0.2,0-0.3,0-0.5l-0.5,0.5H22.3z"/>
		<path d="M22.3,16.4c-0.4-0.6-0.9-1.2-1.7-1.8c-0.5-0.4-1.2-0.7-2-1L14,18.2v4.4c-1-0.2-1.6-0.6-2.2-1.2c-0.2-0.2-0.3-0.3-0.4-0.5l-2.7,2.7c0.1,0.1,0.1,0.3,0.3,0.4c1.2,1.2,3,1.8,5,2V28h2v-2.1c1-0.1,2.5-0.4,3.5-0.9c0.9-0.5,1.6-1,2.2-1.6c0.5-0.6,0.9-1.2,1.1-1.9c0.2-0.6,0.3-1.2,0.3-1.6c0-0.5,0-1-0.1-1.6C22.9,17.7,22.6,17.1,22.3,16.4z M18.6,20.9c-0.2,0.3-0.4,0.6-0.7,0.9c-0.3,0.2-0.5,0.4-0.9,0.5c-0.4,0.1-1,0.2-1,0.2V17c1,0.3,1.8,0.6,2.3,1c0.5,0.4,0.7,0.9,0.7,1.7C19,20.2,18.8,20.6,18.6,20.9z"/>
		<path d="M8.6,18.8H7c0,0.5,0.1,1,0.2,1.5L8.6,18.8z"/>
		<path d="M9.2,14.6c0.5,0.4,1.2,0.8,1.9,1c0.2,0.1,0.4,0.1,0.6,0.2l4.3-4.2V7.8c0,0,1.1,0.3,1.6,0.8c0.2,0.3,0.3,0.5,0.5,0.9l2.8-2.8c-0.2-0.2-0.3-0.4-0.5-0.5c-0.6-0.5-1.2-0.9-1.9-1.2C17.6,4.7,17,4.5,16,4.4V2h-2v2.4c-1,0.1-1.6,0.2-2.4,0.5c-0.8,0.3-1.5,0.7-2.1,1.2C8.8,6.6,8.4,7.2,8,8c-0.4,0.7-0.6,1.6-0.6,2.6c0,1,0.2,1.8,0.5,2.4C8.2,13.6,8.7,14.1,9.2,14.6zM11.7,9.1c0.1-0.3,0.3-0.5,0.6-0.7c0.2-0.2,0.5-0.4,0.8-0.4S14,7.8,14,7.8v4.7c-1-0.2-1.5-0.5-1.9-0.8c-0.4-0.3-0.6-0.8-0.6-1.5C11.5,9.7,11.6,9.4,11.7,9.1z"/>
	</symbol>
	<symbol viewBox="0 0 30 30" id="holiday">
		<path d="M18.2,3.8c0,0,7.3-5.5,8.6,3.1c-3.6-3-7.1-1.9-7.7-0.6c2.5-0.9,12.7,2.1,6.3,10.4c-0.2-5.1-4.2-8.4-7.2-8.6c-2.2,0.3-7.1,2.3-7.9,8.7C6.2,8.3,12,5.4,16.2,5.9c-1.8-1.8-6-1.4-7.3,1.9C8.6,3,12.8-0.1,18.2,3.8z"/>
		<path d="M17.1,9.8l1.3-0.6l1,0.6c0,0,1.2,9.2-2.9,12.7c-3.8,0.5-5.8,2-8.4,1.1C8.3,23.4,16.7,22.7,17.1,9.8z"/>
		<path d="M1.8,23.5c0,0,1.9,4.5,7.7,4.5c6.6,0,6.9-2.1,11.3-2.1c4.2,0,6.8,0.6,6.8,0.6s-3-2.4-6.8-2.4s-7.1,2-11.3,2C4.5,26.1,1.8,23.5,1.8,23.5z"/>
	</symbol>
</svg>